<svg xmlns="http://www.w3.org/2000/svg" xmlns:xlink="http://www.w3.org/1999/xlink" width="320" zoomAndPan="magnify" viewBox="0 0 240 44.999999" height="60" preserveAspectRatio="xMidYMid meet" version="1.0"><defs><g/><clipPath id="id1"><path d="M 53 28 L 60 28 L 60 34.585938 L 53 34.585938 Z M 53 28 " clip-rule="nonzero"/></clipPath><clipPath id="id2"><path d="M 69 17 L 73.894531 17 L 73.894531 23 L 69 23 Z M 69 17 " clip-rule="nonzero"/></clipPath><clipPath id="id3"><path d="M 49.894531 10.597656 L 58 10.597656 L 58 19 L 49.894531 19 Z M 49.894531 10.597656 " clip-rule="nonzero"/></clipPath></defs><g fill="#00c2cb" fill-opacity="1"><g transform="translate(79.05224, 31.322097)"><g><path d="M 15.15625 0 L 11.234375 0 L 6.96875 -6.859375 L 5.5 -5.8125 L 5.5 0 L 2.046875 0 L 2.046875 -16.28125 L 5.5 -16.28125 L 5.5 -8.828125 L 6.859375 -10.75 L 11.265625 -16.28125 L 15.109375 -16.28125 L 9.421875 -9.078125 Z M 15.15625 0 "/></g></g></g><g fill="#00c2cb" fill-opacity="1"><g transform="translate(93.967868, 31.322097)"><g><path d="M 9.6875 0 L 9.03125 -1.6875 L 8.9375 -1.6875 C 8.375 -0.96875 7.785156 -0.46875 7.171875 -0.1875 C 6.566406 0.0820312 5.78125 0.21875 4.8125 0.21875 C 3.613281 0.21875 2.671875 -0.117188 1.984375 -0.796875 C 1.296875 -1.484375 0.953125 -2.457031 0.953125 -3.71875 C 0.953125 -5.039062 1.414062 -6.015625 2.34375 -6.640625 C 3.269531 -7.265625 4.664062 -7.613281 6.53125 -7.6875 L 8.6875 -7.75 L 8.6875 -8.296875 C 8.6875 -9.554688 8.039062 -10.1875 6.75 -10.1875 C 5.75 -10.1875 4.578125 -9.890625 3.234375 -9.296875 L 2.109375 -11.578125 C 3.546875 -12.328125 5.140625 -12.703125 6.890625 -12.703125 C 8.554688 -12.703125 9.832031 -12.335938 10.71875 -11.609375 C 11.613281 -10.890625 12.0625 -9.785156 12.0625 -8.296875 L 12.0625 0 Z M 8.6875 -5.765625 L 7.375 -5.71875 C 6.382812 -5.695312 5.644531 -5.519531 5.15625 -5.1875 C 4.675781 -4.863281 4.4375 -4.367188 4.4375 -3.703125 C 4.4375 -2.742188 4.988281 -2.265625 6.09375 -2.265625 C 6.882812 -2.265625 7.515625 -2.488281 7.984375 -2.9375 C 8.453125 -3.394531 8.6875 -4 8.6875 -4.75 Z M 8.6875 -5.765625 "/></g></g></g><g fill="#00c2cb" fill-opacity="1"><g transform="translate(107.51388, 31.322097)"><g><path d="M 6.9375 -2.4375 C 7.851562 -2.4375 8.503906 -2.695312 8.890625 -3.21875 C 9.285156 -3.75 9.484375 -4.597656 9.484375 -5.765625 L 9.484375 -6.1875 C 9.484375 -7.507812 9.273438 -8.460938 8.859375 -9.046875 C 8.453125 -9.628906 7.796875 -9.921875 6.890625 -9.921875 C 5.285156 -9.921875 4.484375 -8.664062 4.484375 -6.15625 C 4.484375 -4.90625 4.679688 -3.972656 5.078125 -3.359375 C 5.484375 -2.742188 6.101562 -2.4375 6.9375 -2.4375 Z M 12.671875 0.015625 C 12.671875 1.804688 12.144531 3.164062 11.09375 4.09375 C 10.050781 5.019531 8.5 5.484375 6.4375 5.484375 C 4.613281 5.484375 3.0625 5.238281 1.78125 4.75 L 1.78125 2.03125 C 3.289062 2.664062 4.910156 2.984375 6.640625 2.984375 C 8.378906 2.984375 9.25 2.039062 9.25 0.15625 L 9.25 -0.09375 L 9.359375 -1.609375 L 9.25 -1.609375 C 8.457031 -0.390625 7.28125 0.21875 5.71875 0.21875 C 4.226562 0.21875 3.070312 -0.351562 2.25 -1.5 C 1.4375 -2.65625 1.03125 -4.222656 1.03125 -6.203125 C 1.03125 -8.242188 1.453125 -9.832031 2.296875 -10.96875 C 3.148438 -12.113281 4.320312 -12.6875 5.8125 -12.6875 C 7.34375 -12.6875 8.546875 -12.078125 9.421875 -10.859375 L 9.515625 -10.859375 L 9.796875 -12.453125 L 12.671875 -12.453125 Z M 12.671875 0.015625 "/></g></g></g><g fill="#00c2cb" fill-opacity="1"><g transform="translate(121.716864, 31.322097)"><g><path d="M 9.6875 0 L 9.03125 -1.6875 L 8.9375 -1.6875 C 8.375 -0.96875 7.785156 -0.46875 7.171875 -0.1875 C 6.566406 0.0820312 5.78125 0.21875 4.8125 0.21875 C 3.613281 0.21875 2.671875 -0.117188 1.984375 -0.796875 C 1.296875 -1.484375 0.953125 -2.457031 0.953125 -3.71875 C 0.953125 -5.039062 1.414062 -6.015625 2.34375 -6.640625 C 3.269531 -7.265625 4.664062 -7.613281 6.53125 -7.6875 L 8.6875 -7.75 L 8.6875 -8.296875 C 8.6875 -9.554688 8.039062 -10.1875 6.75 -10.1875 C 5.75 -10.1875 4.578125 -9.890625 3.234375 -9.296875 L 2.109375 -11.578125 C 3.546875 -12.328125 5.140625 -12.703125 6.890625 -12.703125 C 8.554688 -12.703125 9.832031 -12.335938 10.71875 -11.609375 C 11.613281 -10.890625 12.0625 -9.785156 12.0625 -8.296875 L 12.0625 0 Z M 8.6875 -5.765625 L 7.375 -5.71875 C 6.382812 -5.695312 5.644531 -5.519531 5.15625 -5.1875 C 4.675781 -4.863281 4.4375 -4.367188 4.4375 -3.703125 C 4.4375 -2.742188 4.988281 -2.265625 6.09375 -2.265625 C 6.882812 -2.265625 7.515625 -2.488281 7.984375 -2.9375 C 8.453125 -3.394531 8.6875 -4 8.6875 -4.75 Z M 8.6875 -5.765625 "/></g></g></g><g fill="#00c2cb" fill-opacity="1"><g transform="translate(135.262874, 31.322097)"><g><path d="M 6.84375 0.21875 C 2.96875 0.21875 1.03125 -1.90625 1.03125 -6.15625 C 1.03125 -8.269531 1.554688 -9.882812 2.609375 -11 C 3.660156 -12.125 5.171875 -12.6875 7.140625 -12.6875 C 8.578125 -12.6875 9.867188 -12.40625 11.015625 -11.84375 L 10.015625 -9.21875 C 9.484375 -9.425781 8.984375 -9.597656 8.515625 -9.734375 C 8.054688 -9.878906 7.597656 -9.953125 7.140625 -9.953125 C 5.367188 -9.953125 4.484375 -8.695312 4.484375 -6.1875 C 4.484375 -3.75 5.367188 -2.53125 7.140625 -2.53125 C 7.796875 -2.53125 8.398438 -2.613281 8.953125 -2.78125 C 9.515625 -2.957031 10.070312 -3.234375 10.625 -3.609375 L 10.625 -0.703125 C 10.070312 -0.347656 9.515625 -0.109375 8.953125 0.015625 C 8.398438 0.148438 7.695312 0.21875 6.84375 0.21875 Z M 6.84375 0.21875 "/></g></g></g><g fill="#00c2cb" fill-opacity="1"><g transform="translate(146.760026, 31.322097)"><g><path d="M 7.03125 -2.484375 C 7.625 -2.484375 8.335938 -2.613281 9.171875 -2.875 L 9.171875 -0.34375 C 8.316406 0.03125 7.273438 0.21875 6.046875 0.21875 C 4.691406 0.21875 3.703125 -0.125 3.078125 -0.8125 C 2.460938 -1.5 2.15625 -2.53125 2.15625 -3.90625 L 2.15625 -9.90625 L 0.53125 -9.90625 L 0.53125 -11.34375 L 2.390625 -12.46875 L 3.375 -15.109375 L 5.546875 -15.109375 L 5.546875 -12.453125 L 9.03125 -12.453125 L 9.03125 -9.90625 L 5.546875 -9.90625 L 5.546875 -3.90625 C 5.546875 -3.414062 5.679688 -3.054688 5.953125 -2.828125 C 6.222656 -2.597656 6.582031 -2.484375 7.03125 -2.484375 Z M 7.03125 -2.484375 "/></g></g></g><g fill="#00c2cb" fill-opacity="1"><g transform="translate(156.431021, 31.322097)"><g><path d="M 1.640625 -15.671875 C 1.640625 -16.773438 2.253906 -17.328125 3.484375 -17.328125 C 4.710938 -17.328125 5.328125 -16.773438 5.328125 -15.671875 C 5.328125 -15.140625 5.171875 -14.726562 4.859375 -14.4375 C 4.554688 -14.144531 4.097656 -14 3.484375 -14 C 2.253906 -14 1.640625 -14.554688 1.640625 -15.671875 Z M 5.171875 0 L 1.78125 0 L 1.78125 -12.453125 L 5.171875 -12.453125 Z M 5.171875 0 "/></g></g></g><g fill="#00c2cb" fill-opacity="1"><g transform="translate(163.162349, 31.322097)"><g><path d="M 4.484375 -6.25 C 4.484375 -5.019531 4.6875 -4.085938 5.09375 -3.453125 C 5.5 -2.816406 6.160156 -2.5 7.078125 -2.5 C 7.984375 -2.5 8.632812 -2.8125 9.03125 -3.4375 C 9.425781 -4.070312 9.625 -5.007812 9.625 -6.25 C 9.625 -7.476562 9.421875 -8.398438 9.015625 -9.015625 C 8.617188 -9.640625 7.960938 -9.953125 7.046875 -9.953125 C 6.140625 -9.953125 5.484375 -9.644531 5.078125 -9.03125 C 4.679688 -8.414062 4.484375 -7.488281 4.484375 -6.25 Z M 13.09375 -6.25 C 13.09375 -4.21875 12.554688 -2.628906 11.484375 -1.484375 C 10.421875 -0.347656 8.9375 0.21875 7.03125 0.21875 C 5.832031 0.21875 4.773438 -0.0390625 3.859375 -0.5625 C 2.953125 -1.082031 2.253906 -1.832031 1.765625 -2.8125 C 1.273438 -3.789062 1.03125 -4.9375 1.03125 -6.25 C 1.03125 -8.28125 1.554688 -9.859375 2.609375 -10.984375 C 3.671875 -12.117188 5.164062 -12.6875 7.09375 -12.6875 C 8.289062 -12.6875 9.34375 -12.425781 10.25 -11.90625 C 11.164062 -11.382812 11.867188 -10.632812 12.359375 -9.65625 C 12.847656 -8.6875 13.09375 -7.550781 13.09375 -6.25 Z M 13.09375 -6.25 "/></g></g></g><g fill="#00c2cb" fill-opacity="1"><g transform="translate(177.053553, 31.322097)"><g><path d="M 13.28125 0 L 9.875 0 L 9.875 -7.28125 C 9.875 -8.175781 9.710938 -8.847656 9.390625 -9.296875 C 9.078125 -9.742188 8.570312 -9.96875 7.875 -9.96875 C 6.925781 -9.96875 6.238281 -9.648438 5.8125 -9.015625 C 5.382812 -8.378906 5.171875 -7.328125 5.171875 -5.859375 L 5.171875 0 L 1.78125 0 L 1.78125 -12.453125 L 4.375 -12.453125 L 4.828125 -10.859375 L 5.03125 -10.859375 C 5.40625 -11.460938 5.921875 -11.914062 6.578125 -12.21875 C 7.242188 -12.53125 8.003906 -12.6875 8.859375 -12.6875 C 10.304688 -12.6875 11.40625 -12.296875 12.15625 -11.515625 C 12.90625 -10.734375 13.28125 -9.601562 13.28125 -8.125 Z M 13.28125 0 "/></g></g></g><path fill="#a8a8a8" d="M 66.21875 20.910156 C 66.351562 21.226562 66.429688 21.570312 66.484375 21.914062 L 69.777344 21.015625 C 69.621094 20.726562 69.515625 20.382812 69.515625 20.015625 Z M 66.21875 20.910156 " fill-opacity="1" fill-rule="nonzero"/><path fill="#a8a8a8" d="M 57.882812 28.742188 C 58.226562 28.847656 58.542969 29.035156 58.808594 29.269531 L 60.101562 26.976562 C 59.757812 26.84375 59.46875 26.660156 59.175781 26.449219 Z M 57.882812 28.742188 " fill-opacity="1" fill-rule="nonzero"/><path fill="#a8a8a8" d="M 59.046875 18.984375 L 56.777344 16.71875 C 56.566406 17.007812 56.328125 17.246094 56.039062 17.457031 L 58.28125 19.699219 C 58.519531 19.433594 58.753906 19.195312 59.046875 18.984375 Z M 59.046875 18.984375 " fill-opacity="1" fill-rule="nonzero"/><g clip-path="url(#id1)"><path fill="#ff66c4" d="M 58.808594 29.246094 C 58.542969 29.035156 58.226562 28.847656 57.882812 28.71875 C 57.566406 28.613281 57.25 28.558594 56.910156 28.558594 C 55.246094 28.558594 53.902344 29.90625 53.902344 31.566406 C 53.902344 33.226562 55.246094 34.574219 56.910156 34.574219 C 58.570312 34.574219 59.914062 33.226562 59.914062 31.566406 C 59.914062 30.644531 59.492188 29.800781 58.808594 29.246094 Z M 58.808594 29.246094 " fill-opacity="1" fill-rule="nonzero"/></g><g clip-path="url(#id2)"><path fill="#ffbd4a" d="M 71.703125 17.800781 C 70.492188 17.800781 69.515625 18.773438 69.515625 19.988281 C 69.515625 20.015625 69.515625 20.015625 69.515625 20.039062 C 69.515625 20.410156 69.621094 20.753906 69.777344 21.042969 C 70.148438 21.730469 70.859375 22.175781 71.679688 22.175781 C 72.890625 22.175781 73.867188 21.199219 73.867188 19.988281 C 73.867188 18.773438 72.917969 17.800781 71.703125 17.800781 Z M 71.703125 17.800781 " fill-opacity="1" fill-rule="nonzero"/></g><g clip-path="url(#id3)"><path fill="#99e265" d="M 53.71875 10.597656 C 51.609375 10.597656 49.894531 12.3125 49.894531 14.421875 C 49.894531 16.53125 51.609375 18.246094 53.71875 18.246094 C 54.589844 18.246094 55.40625 17.957031 56.039062 17.457031 C 56.328125 17.246094 56.566406 16.980469 56.777344 16.71875 C 57.25 16.085938 57.542969 15.292969 57.542969 14.421875 C 57.542969 12.3125 55.828125 10.597656 53.71875 10.597656 Z M 53.71875 10.597656 " fill-opacity="1" fill-rule="nonzero"/></g><path fill="#f4f6fc" d="M 66.507812 21.914062 C 66.457031 21.570312 66.351562 21.226562 66.246094 20.910156 C 65.53125 19.195312 63.871094 17.984375 61.894531 17.984375 C 60.8125 17.984375 59.835938 18.351562 59.046875 18.960938 C 58.78125 19.171875 58.519531 19.40625 58.308594 19.699219 C 57.648438 20.515625 57.25 21.542969 57.25 22.652344 C 57.25 24.207031 58.015625 25.578125 59.203125 26.449219 C 59.492188 26.660156 59.808594 26.84375 60.125 26.976562 C 60.679688 27.214844 61.285156 27.347656 61.921875 27.347656 C 64.503906 27.347656 66.589844 25.261719 66.589844 22.679688 C 66.5625 22.414062 66.535156 22.152344 66.507812 21.914062 Z M 66.507812 21.914062 " fill-opacity="1" fill-rule="nonzero"/></svg>